<svg xmlns="http://www.w3.org/2000/svg" id="Layer_1" data-name="Layer 1" viewBox="0 0 162.6 149.47"><defs><style>.cls-1{fill:#fdb717;}.cls-2{fill:#254749;}.cls-3{fill:#fff;}</style></defs><path class="cls-1" d="M55.48,11.8A18,18,0,0,1,59.32,20c.19.94.32,1.9.59,2.82A8.29,8.29,0,0,0,64.12,28a4.21,4.21,0,0,1,2.19,2.47,43.38,43.38,0,0,1,1.36,5.36,3.75,3.75,0,0,0,1.38,2.39,12.94,12.94,0,0,1,4.76,7.26,12.6,12.6,0,0,1,.21,2,2.4,2.4,0,0,0,1.12,2.07A11.84,11.84,0,0,1,80.72,59.8a1.53,1.53,0,0,0,.69.94c1.39.93,2.86,1.74,4.21,2.74a8.83,8.83,0,0,1,1.84,2.05c.9,1.28.85,1.29-.3,2.37a9.34,9.34,0,0,0-2.86,8.22c0,.26.06.52.08.64-.54-.45-1.1-1-1.73-1.45a25.64,25.64,0,0,0-3.32-2.18,3.52,3.52,0,0,0-3.44.3,2.2,2.2,0,0,1-1.42.23A15.91,15.91,0,0,1,62.35,59.32a2.27,2.27,0,0,1,.48.09A52.7,52.7,0,0,1,75.66,66.7c1,.78,1.76,1.73,2.67,2.56a1.28,1.28,0,0,0,1,.21A10.5,10.5,0,0,0,76,65.57c-2.19-1.63-2.64-3-1.74-5.6a2.82,2.82,0,0,0-.55-2.9,41.64,41.64,0,0,0-4.11-4A3.68,3.68,0,0,1,68,49.84a2.9,2.9,0,0,1,.49-1.53,2.28,2.28,0,0,0,.06-3,28.57,28.57,0,0,0-3.74-4.18c-2.14-1.91-2.52-3.12-1.6-5.87a2.81,2.81,0,0,0-.3-2,7.1,7.1,0,0,0-1.63-1.84,13,13,0,0,1-4.76-9.34c-.21-3.44-.67-6.86-1-10.26"></path><path class="cls-1" d="M98.73,69.64c.29-.11.68-.13.86-.34,4.33-4.8,10-7.46,15.77-10a2.17,2.17,0,0,1,.39,0c-.29,1.21-.49,2.41-.86,3.56A15.38,15.38,0,0,1,103.67,73.6a2.59,2.59,0,0,1-1.7-.24,3.9,3.9,0,0,0-4.11.09,32.78,32.78,0,0,0-3.36,2.67c-.3.26-.55.59-1,1.06.65-4.22-.35-7.65-4-10.28A15.93,15.93,0,0,1,91.82,64a40.09,40.09,0,0,1,4.65-3.17c.52-.32.8-.56.81-1.22a11.43,11.43,0,0,1,5.21-9.74A3.09,3.09,0,0,0,104,47.14c.1-3.62,2-6.37,4.63-8.61a4.75,4.75,0,0,0,1.78-3.28,24.87,24.87,0,0,1,.94-4,5.53,5.53,0,0,1,2.77-3.4,8.51,8.51,0,0,0,4.31-6.54,18.92,18.92,0,0,1,3.75-9.11,8.61,8.61,0,0,1,.58-.64c-.08.48-.13.72-.16,1-.36,2.92-.89,5.83-1,8.76a13.34,13.34,0,0,1-4.8,10.07,17.88,17.88,0,0,0-1.29,1.32,2.53,2.53,0,0,0-.51,3.09,4.11,4.11,0,0,1-1.32,5,31.45,31.45,0,0,0-3.69,3.7c-1,1.19-1.48,2.51-.32,4.09,1,1.37.34,3.34-1.09,4.46a34.56,34.56,0,0,0-3.2,2.72,6.36,6.36,0,0,0-1.46,2.21,3.57,3.57,0,0,0,0,2.17c.75,2.32.25,3.85-1.67,5.4-1.34,1.09-2.51,2.38-3.75,3.58l.33.57"></path><path class="cls-1" d="M83.42,73.1c0-3.64,2.54-6.58,5.67-6.58s5.66,2.94,5.66,6.58-2.53,6.58-5.66,6.58-5.67-2.94-5.67-6.58"></path><path class="cls-2" d="M45.28,135.31a2.6,2.6,0,0,0,.52.53,2.88,2.88,0,0,0,.72.38,2.63,2.63,0,0,0,.91.15,2.35,2.35,0,0,0,.94-.18,2,2,0,0,0,.71-.49,2,2,0,0,0,.45-.72,2.65,2.65,0,0,0,.16-.89,1.75,1.75,0,0,0-.37-1.16,3,3,0,0,0-.93-.7,8.7,8.7,0,0,0-1.19-.52,6.32,6.32,0,0,1-1.19-.6,3.28,3.28,0,0,1-.92-.9,2.61,2.61,0,0,1-.37-1.49,2.92,2.92,0,0,1,.24-1.2,2.45,2.45,0,0,1,.68-.94,3.36,3.36,0,0,1,1.08-.62,4.5,4.5,0,0,1,1.42-.22,3.94,3.94,0,0,1,1.31.19,3.16,3.16,0,0,1,1,.55,3.57,3.57,0,0,0-.23.57c-.06.2-.13.46-.19.76h-.19a3.19,3.19,0,0,0-.21-.48,1.55,1.55,0,0,0-.37-.48,1.91,1.91,0,0,0-.54-.37,1.75,1.75,0,0,0-.76-.15,2.16,2.16,0,0,0-.81.14,1.83,1.83,0,0,0-.64.4,1.69,1.69,0,0,0-.43.62,2.09,2.09,0,0,0-.15.79,1.69,1.69,0,0,0,.37,1.17,3.34,3.34,0,0,0,.92.72,9.93,9.93,0,0,0,1.19.52,6.5,6.5,0,0,1,1.19.56,3,3,0,0,1,.93.85,2.41,2.41,0,0,1,.37,1.39,3.71,3.71,0,0,1-.26,1.37,3.24,3.24,0,0,1-2,1.87,4.81,4.81,0,0,1-1.63.26,3.87,3.87,0,0,1-2.6-.85,3.68,3.68,0,0,0,.2-.66,7.31,7.31,0,0,0,.1-.75h.19a3.23,3.23,0,0,0,.34.58"></path><path class="cls-2" d="M55.21,131.88h.85l.85,0h.88l.89,0-1.75-4Zm7,4.9-.41,0h-.84l-.42,0q-.1-.36-.3-.87c-.12-.34-.26-.7-.42-1.07s-.3-.76-.46-1.14-.31-.75-.44-1.1l-1,0h-2l-1,0c-.34.82-.64,1.6-.92,2.35s-.48,1.35-.61,1.83a5.28,5.28,0,0,0-.59,0,5.22,5.22,0,0,0-.58,0q1.27-2.76,2.49-5.48t2.45-5.56h.3c.25.61.52,1.27.82,2s.59,1.43.9,2.15.6,1.45.91,2.17.59,1.38.86,2l.72,1.65c.22.48.4.85.53,1.1"></path><path class="cls-2" d="M64.28,128q0-1-.09-2l1.42,0q.69,0,1.41,0l1.43,0L70,126a2.5,2.5,0,0,0,0,.47,2.42,2.42,0,0,0,0,.47l-1-.08-1.22-.07-1.2,0-1,0c0,.37,0,.72,0,1.06s0,.67,0,1,0,.7,0,1v1c.7,0,1.38,0,2.06,0s1.35-.06,2-.12a1.84,1.84,0,0,0-.06.47,1.89,1.89,0,0,0,.06.47l-.89-.07-1,0-1.09,0H65.61v1.35c0,.69,0,1.37,0,2s.06,1.34.09,2c-.24,0-.5,0-.77,0s-.53,0-.78,0c0-.65.07-1.31.09-2s0-1.35,0-2V130c0-.69,0-1.37,0-2"></path><path class="cls-2" d="M73.61,131.88h.85l.85,0h.89l.88,0-1.75-4Zm7,4.9-.42,0h-.84l-.42,0q-.11-.36-.3-.87c-.12-.34-.26-.7-.41-1.07l-.47-1.14c-.16-.38-.3-.75-.44-1.1l-1,0h-2l-1,0c-.34.82-.64,1.6-.92,2.35s-.47,1.35-.61,1.83a5.22,5.22,0,0,0-.58,0,5.41,5.41,0,0,0-.59,0q1.27-2.76,2.49-5.48t2.45-5.56h.3c.25.61.52,1.27.82,2s.59,1.43.9,2.15.61,1.45.91,2.17.59,1.38.86,2,.51,1.17.73,1.65.39.85.53,1.1"></path><path class="cls-2" d="M84,130.93a3.5,3.5,0,0,0,.48.06,5.06,5.06,0,0,0,.57,0,5.21,5.21,0,0,0,1-.11,2.75,2.75,0,0,0,1-.39,2.27,2.27,0,0,0,.74-.74,2.2,2.2,0,0,0,.29-1.17,2.08,2.08,0,0,0-.23-1,1.82,1.82,0,0,0-.59-.64,2.48,2.48,0,0,0-.79-.32,4.07,4.07,0,0,0-.84-.09l-.91,0-.62.06-.06,1.72c0,.57,0,1.14,0,1.7Zm-1.29-.9c0-.69,0-1.37,0-2s-.06-1.35-.09-2l.9,0q.44,0,.9,0c.3,0,.6,0,.9,0a8.7,8.7,0,0,1,.89,0,6.44,6.44,0,0,1,1.27.12,3.4,3.4,0,0,1,1.05.42,2.16,2.16,0,0,1,.7.77,2.34,2.34,0,0,1,.26,1.18,2.38,2.38,0,0,1-.34,1.3,3.22,3.22,0,0,1-.82.9,4.06,4.06,0,0,1-1,.55,5.1,5.1,0,0,1-1,.26l.52.67.74.93.86,1.07c.29.38.57.74.85,1.08s.53.65.77.94.44.49.58.64a3.71,3.71,0,0,0-.47,0h-.93a3.44,3.44,0,0,0-.46,0l-.71-1c-.33-.44-.68-.92-1.07-1.42s-.79-1-1.19-1.51-.78-.92-1.11-1.27H84v1.16c0,.69,0,1.37,0,2s0,1.34.08,2c-.24,0-.5,0-.77,0s-.53,0-.77,0c0-.65.06-1.31.09-2s0-1.35,0-2Z"></path><path class="cls-2" d="M92.64,128q0-1-.09-2l.39,0,.38,0a2.43,2.43,0,0,0,.38,0l.39,0c0,.69-.06,1.37-.08,2s0,1.35,0,2v2.72c0,.69,0,1.37,0,2s0,1.34.08,2c-.24,0-.5,0-.77,0s-.53,0-.77,0c0-.65.06-1.31.09-2s0-1.35,0-2V130c0-.69,0-1.37,0-2"></path><path class="cls-2" d="M97.37,135.31a2.6,2.6,0,0,0,.52.53,2.81,2.81,0,0,0,.71.38,2.69,2.69,0,0,0,.92.15,2.35,2.35,0,0,0,.94-.18,2.1,2.1,0,0,0,.71-.49,2.2,2.2,0,0,0,.45-.72,2.65,2.65,0,0,0,.16-.89,1.71,1.71,0,0,0-.38-1.16,2.84,2.84,0,0,0-.92-.7,9.27,9.27,0,0,0-1.19-.52,6,6,0,0,1-1.19-.6,3.16,3.16,0,0,1-.92-.9,2.61,2.61,0,0,1-.37-1.49,2.92,2.92,0,0,1,.23-1.2,2.58,2.58,0,0,1,.69-.94,3.36,3.36,0,0,1,1.08-.62,4.45,4.45,0,0,1,1.42-.22,4,4,0,0,1,1.31.19,3.16,3.16,0,0,1,1,.55,3.57,3.57,0,0,0-.23.57,6,6,0,0,0-.19.76H102a3.31,3.31,0,0,0-.22-.48,1.51,1.51,0,0,0-.36-.48,1.91,1.91,0,0,0-.54-.37,1.75,1.75,0,0,0-.76-.15,2.16,2.16,0,0,0-.81.14,2,2,0,0,0-.65.4,1.79,1.79,0,0,0-.42.62,2.09,2.09,0,0,0-.15.79,1.69,1.69,0,0,0,.37,1.17,3.2,3.2,0,0,0,.92.72,9.93,9.93,0,0,0,1.19.52,6.5,6.5,0,0,1,1.19.56,3,3,0,0,1,.93.85,2.41,2.41,0,0,1,.36,1.39,3.52,3.52,0,0,1-.26,1.37A3.19,3.19,0,0,1,102,136a3.33,3.33,0,0,1-1.22.74,4.85,4.85,0,0,1-1.63.26,3.87,3.87,0,0,1-2.6-.85,4.74,4.74,0,0,0,.2-.66c0-.19.07-.44.1-.75H97a2.73,2.73,0,0,0,.34.58"></path><path class="cls-3" d="M32.76,87.82a3.31,3.31,0,0,0,0-6.62,3.31,3.31,0,0,0,0,6.62"></path><path class="cls-2" d="M2.05,76.77l.51-.1A120.62,120.62,0,0,1,15.4,75a1.36,1.36,0,0,1,1,.33,1.28,1.28,0,0,1,.4.93v43.06h5.32V76.25a1.23,1.23,0,0,1,.41-.91,1.3,1.3,0,0,1,.87-.35h.08c6,.45,12.78,1.67,12.85,1.68l.5.1V73.1H2.05Z"></path><path class="cls-2" d="M30.1,90.83v28.48h5.33V92c0-1.81-1.46-1.79-2.28-1.79Z"></path><path class="cls-2" d="M47,75c0-1.75-1.3-1.85-2.11-1.85h-.16l-3.06.58v45.56H47Z"></path><path class="cls-2" d="M63.52,90.22c2.71,0,4.75,2.3,4.75,5.34,0,4.12-2.41,5.41-5.83,6.79l-1.39.55A40.15,40.15,0,0,0,57,104.7a1.84,1.84,0,0,1-.84.28l-.09-.09a5.88,5.88,0,0,1-.06-1c0-7.64,3.32-13.63,7.55-13.63m.9,29.09a12.68,12.68,0,0,0,11.22-7l.12-.28-1.27-1.15-.27.46c0,.05-3.13,5.3-8.89,5.3-4.66,0-7.74-2.78-8.91-8a2.36,2.36,0,0,1,1-2.27A29.09,29.09,0,0,1,63.07,104l1-.33c4.91-1.61,9.53-3.12,9.53-8.11,0-4.25-3.69-7.1-9.17-7.1-8,0-13.77,6.48-13.77,15.39,0,9.54,5.27,15.46,13.77,15.46"></path><path class="cls-2" d="M84,99.78c.42-1.45,2.79-8.72,7.92-8.72,1.41,0,4.33,0,5,7.58l1.74,20.29,0,.38H104l-1.85-21.13c-.72-6.45-3.86-9.72-9.37-9.72-4.56,0-7.31,3.35-8.83,6.25V90.05c0-1.93-1.51-1.91-2.28-1.91l-3,.67v30.5H84Z"></path><path class="cls-2" d="M111.51,100.61c0-6,3.56-10.39,8.45-10.39s8.52,4.37,8.52,10.39-3.58,10.46-8.52,10.46-8.45-4.4-8.45-10.46m22.29,27.16c0-6.21-5.73-10.22-14.61-10.22a37.34,37.34,0,0,0-4.88.41l0,0,.08-.06,4.72-4a6.63,6.63,0,0,1,3-1.2c6.94-.81,11.78-5.78,11.78-12.09a11.91,11.91,0,0,0-7.92-11.09l-.13,0a.44.44,0,0,0,.15,0c3.61-.94,7.9-3.14,7.9-8.31v-.35l-5.32-1v.52c0,5.53-4.54,7.87-8.39,8.19-6.73,0-13.9,4.26-13.9,12.15,0,5.86,4.38,10.75,10.65,11.89a1.26,1.26,0,0,1,.48.17s0,.16-.33.35l-9.53,6.88-.26.19,1.1,3.19.42-.18a31,31,0,0,1,10.47-2c4.47,0,9.29,2.34,9.29,7.48,0,4.65-3.22,7.54-8.39,7.54a11.43,11.43,0,0,1-9.67-5.29l-.27-.49-3.17,3.1.31.3s4.51,4.14,12.8,4.14c8.72,0,13.71-3.7,13.71-10.14"></path><path class="cls-2" d="M139.58,112.22c0-8.5,9.69-10.46,12.6-10.86.43,0,1.45.12,1.51,1.18l.32,3.24a7.15,7.15,0,0,1-.59,3.19c-1.23,2.3-4.66,7.68-9.93,7.68-2.52,0-3.91-1.58-3.91-4.43m14.72-.9c.06-.09.1-.18.15-.24s0,.12,0,.2l.58,6.18a2,2,0,0,0,1.92,1.85,1.48,1.48,0,0,0,.59-.08l3-.58-1.86-20.47c-.93-8.46-6.83-9.72-10.27-9.72a18.79,18.79,0,0,0-12.11,4.8l-.29.3,2.7,2.69.13.13H139c.2,0,.29-.1.48-.33,3.1-3.76,6.26-5.83,8.91-5.83,1.29,0,4.33,0,5,8.42,0,.47-.63.81-1.31.9-8.21.81-17.8,4.63-17.8,12.74,0,4.4,3,7,8.14,7,6.56,0,10.27-5,11.9-8"></path></svg>