<svg xmlns="http://www.w3.org/2000/svg" viewBox="54 5 72 80">
  <rect x="54" y="5" width="72" height="80" fill="white" />
  <path fill="#fdb717" d="M55.48,11.8A18,18,0,0,1,59.32,20c.19.94.32,1.9.59,2.82A8.29,8.29,0,0,0,64.12,28a4.21,4.21,0,0,1,2.19,2.47,43.38,43.38,0,0,1,1.36,5.36,3.75,3.75,0,0,0,1.38,2.39,12.94,12.94,0,0,1,4.76,7.26,12.6,12.6,0,0,1,.21,2,2.4,2.4,0,0,0,1.12,2.07A11.84,11.84,0,0,1,80.72,59.8a1.53,1.53,0,0,0,.69.94c1.39.93,2.86,1.74,4.21,2.74a8.83,8.83,0,0,1,1.84,2.05c.9,1.28.85,1.29-.3,2.37a9.34,9.34,0,0,0-2.86,8.22c0,.26.06.52.08.64-.54-.45-1.1-1-1.73-1.45a25.64,25.64,0,0,0-3.32-2.18,3.52,3.52,0,0,0-3.44.3,2.2,2.2,0,0,1-1.42.23A15.91,15.91,0,0,1,62.35,59.32a2.27,2.27,0,0,1,.48.09A52.7,52.7,0,0,1,75.66,66.7c1,.78,1.76,1.73,2.67,2.56a1.28,1.28,0,0,0,1,.21A10.5,10.5,0,0,0,76,65.57c-2.19-1.63-2.64-3-1.74-5.6a2.82,2.82,0,0,0-.55-2.9,41.64,41.64,0,0,0-4.11-4A3.68,3.68,0,0,1,68,49.84a2.9,2.9,0,0,1,.49-1.53,2.28,2.28,0,0,0,.06-3,28.57,28.57,0,0,0-3.74-4.18c-2.14-1.91-2.52-3.12-1.6-5.87a2.81,2.81,0,0,0-.3-2,7.1,7.1,0,0,0-1.63-1.84,13,13,0,0,1-4.76-9.34c-.21-3.44-.67-6.86-1-10.26"></path>
  <path fill="#fdb717" d="M98.73,69.64c.29-.11.68-.13.86-.34,4.33-4.8,10-7.46,15.77-10a2.17,2.17,0,0,1,.39,0c-.29,1.21-.49,2.41-.86,3.56A15.38,15.38,0,0,1,103.67,73.6a2.59,2.59,0,0,1-1.7-.24,3.9,3.9,0,0,0-4.11.09,32.78,32.78,0,0,0-3.36,2.67c-.3.26-.55.59-1,1.06.65-4.22-.35-7.65-4-10.28A15.93,15.93,0,0,1,91.82,64a40.09,40.09,0,0,1,4.65-3.17c.52-.32.8-.56.81-1.22a11.43,11.43,0,0,1,5.21-9.74A3.09,3.09,0,0,0,104,47.14c.1-3.62,2-6.37,4.63-8.61a4.75,4.75,0,0,0,1.78-3.28,24.87,24.87,0,0,1,.94-4,5.53,5.53,0,0,1,2.77-3.4,8.51,8.51,0,0,0,4.31-6.54,18.92,18.92,0,0,1,3.75-9.11,8.61,8.61,0,0,1,.58-.64c-.08.48-.13.72-.16,1-.36,2.92-.89,5.83-1,8.76a13.34,13.34,0,0,1-4.8,10.07,17.88,17.88,0,0,0-1.29,1.32,2.53,2.53,0,0,0-.51,3.09,4.11,4.11,0,0,1-1.32,5,31.45,31.45,0,0,0-3.69,3.7c-1,1.19-1.48,2.51-.32,4.09,1,1.37.34,3.34-1.09,4.46a34.56,34.56,0,0,0-3.2,2.72,6.36,6.36,0,0,0-1.46,2.21,3.57,3.57,0,0,0,0,2.17c.75,2.32.25,3.85-1.67,5.4-1.34,1.09-2.51,2.38-3.75,3.58l.33.57"></path>
  <path fill="#fdb717" d="M83.42,73.1c0-3.64,2.54-6.58,5.67-6.58s5.66,2.94,5.66,6.58-2.53,6.58-5.66,6.58-5.67-2.94-5.67-6.58"></path>
</svg>
